/* XPM */
static char *ca200da14dad423090eb1d5c10a14aeb[] = {
/* columns rows colors chars-per-pixel */
"32 32 247 2 ",
"   c #010101",
".  c #0E100E",
"X  c #1E1503",
"o  c #261A06",
"O  c #1F261F",
"+  c #383618",
"@  c #000A3A",
"#  c #041036",
"$  c #28352E",
"%  c #2B3634",
"&  c #363E33",
"*  c #006633",
"=  c #006C36",
"-  c #006C3C",
";  c #04733E",
":  c #41573B",
">  c #000951",
",  c #05165B",
"<  c #122053",
"1  c #000778",
"2  c #00127A",
"3  c #042B7A",
"4  c #017343",
"5  c #097845",
"6  c #02774A",
"7  c #0C7248",
"8  c #037A4D",
"9  c #0B7A4A",
"0  c #017552",
"q  c #037C52",
"w  c #5F6654",
"e  c #6E7C72",
"r  c #DA1B15",
"t  c #D92017",
"y  c #DB231C",
"u  c #D3361F",
"i  c #E1221F",
"p  c #DC2923",
"a  c #DD2B27",
"s  c #C93F2D",
"d  c #DD332B",
"f  c #D8362B",
"g  c #DB3A33",
"h  c #DD3C33",
"j  c #E12B27",
"k  c #E2332E",
"l  c #B1552F",
"z  c #BC583A",
"x  c #A46D2F",
"c  c #C84733",
"v  c #D54638",
"b  c #DC4B3B",
"n  c #C3573E",
"m  c #B77858",
"M  c #BB7962",
"N  c #CD5A47",
"B  c #DA5749",
"V  c #D45B4C",
"C  c #D65E51",
"Z  c #E1584B",
"A  c #C66748",
"S  c #CE7A4C",
"D  c #C96A56",
"F  c #D16152",
"G  c #D66B59",
"H  c #E36C5C",
"J  c #D56F62",
"K  c #C87962",
"L  c #DA7866",
"P  c #E77869",
"I  c #088039",
"U  c #7C8F21",
"Y  c #088242",
"T  c #13854B",
"R  c #1C8553",
"E  c #248C58",
"W  c #2A8B58",
"Q  c #2B9258",
"!  c #1A8767",
"~  c #359564",
"^  c #39976A",
"/  c #429869",
"(  c #479D73",
")  c #7A847A",
"_  c #7E9577",
"`  c #4AA578",
"'  c #57A57D",
"]  c #5AAB7C",
"[  c #5DB17A",
"{  c #8C931A",
"}  c #A38E08",
"|  c #829424",
" . c #939A29",
".. c #BAA038",
"X. c #C6940D",
"o. c #D39B0B",
"O. c #CD9D10",
"+. c #D09E10",
"@. c #D4A405",
"#. c #FFBB01",
"$. c #F0B20A",
"%. c #D3B73B",
"&. c #FFCA0D",
"*. c #FCC723",
"=. c #F7CB38",
"-. c #B68A53",
";. c #8CA958",
":. c #B1A94E",
">. c #AAB55A",
",. c #C5BA48",
"<. c #C88769",
"1. c #CA8975",
"2. c #D78677",
"3. c #D29475",
"4. c #E2977C",
"5. c #D9A37D",
"6. c #E9A37B",
"7. c #DFC940",
"8. c #DDCD6E",
"9. c #FDDC6E",
"0. c #000A87",
"q. c #061C8A",
"w. c #000E92",
"e. c #071A93",
"r. c #021C93",
"t. c #09268C",
"y. c #0D348B",
"u. c #163E83",
"i. c #062599",
"p. c #162D91",
"a. c #354A89",
"s. c #2E4E96",
"d. c #31618D",
"f. c #375BA6",
"g. c #42569B",
"h. c #517696",
"j. c #4457A7",
"k. c #4566A3",
"l. c #5777A7",
"z. c #5E72B0",
"x. c #6279A6",
"c. c #38A08C",
"v. c #65839F",
"b. c #5BAA82",
"n. c #5CAF8A",
"m. c #5FAD98",
"M. c #66B086",
"N. c #6CB28D",
"B. c #6CB48D",
"V. c #76B996",
"C. c #7CBC9B",
"Z. c #5A82A5",
"A. c #6484AA",
"S. c #768EAC",
"D. c #7897AD",
"F. c #6A84B3",
"G. c #758BB6",
"H. c #7D92B9",
"J. c #7FC09A",
"K. c #7DC1A0",
"L. c #8D988D",
"P. c #93B085",
"I. c #83BE9A",
"U. c #BFAE8D",
"Y. c #8497B1",
"T. c #86A1B7",
"R. c #B0B3A2",
"E. c #D78D80",
"W. c #D89787",
"Q. c #D39B8A",
"!. c #E19980",
"~. c #CAA88C",
"^. c #DAAC9C",
"/. c #E9A98C",
"(. c #E3AD94",
"). c #E4B49B",
"_. c #CEBEAC",
"`. c #D8BAA9",
"'. c #EBBBB2",
"]. c #90C497",
"[. c #8BC1A6",
"{. c #96C9A9",
"}. c #92C9AD",
"|. c #9CC6B3",
" X c #9CCDB2",
".X c #9DD0B1",
"XX c #BEC9B7",
"oX c #A1D0B4",
"OX c #A9D5B8",
"+X c #B1D1B5",
"@X c #CAC491",
"#X c #EBDD8C",
"$X c #CACFB2",
"%X c #D1CDBA",
"&X c #E3C4A5",
"*X c #E5D2AE",
"=X c #D0E6BC",
"-X c #8A9DC3",
";X c #97A8C4",
":X c #A5B8CB",
">X c #ABB3D7",
",X c #A9BAD4",
"<X c #AAC8C6",
"1X c #AED5C2",
"2X c #B6D9C5",
"3X c #BADDC6",
"4X c #ADC0D3",
"5X c #BAC8D7",
"6X c #B5C7E1",
"7X c #CAD9C7",
"8X c #C2D1D1",
"9X c #C7DFD3",
"0X c #E4CEC4",
"qX c #F3C5C3",
"wX c #E6DCC6",
"eX c #EADDD5",
"rX c #C6E4C9",
"tX c #DAE5C7",
"yX c #C7E3D2",
"uX c #CBE6D7",
"iX c #CDE5D9",
"pX c #D5EDD8",
"aX c #DAEDDD",
"sX c #DEF3DA",
"dX c #E6E9CD",
"fX c #E7E5D7",
"gX c #F1E1DA",
"hX c #E5F5D8",
"jX c #E2F4DD",
"kX c #CAD4E1",
"lX c #CFDAE2",
"zX c #DCE7EA",
"xX c #E0EAE4",
"cX c #F7EEE6",
"vX c #EBF4E5",
"bX c #E5F3EA",
"nX c #EBF5EC",
"mX c #EAF9E9",
"MX c #F3FDE4",
"NX c #F7FAEF",
"BX c #F1FDEC",
"VX c #EAFCF4",
"CX c #F2F6F2",
"ZX c #F4FBF4",
"AX c #FBFDF4",
"SX c #F6FCFA",
"DX c #FEFEFE",
/* pixels */
"DXDXDXDXSXDXDXSXCXeX'.Q.2.J F V F G L E.^.0XeXCXSXDXDXDXDXDXDXDX",
"DXDXDXDXDXAXSXfXV f f y a a k j y j p a r t f B E.0XSXDXDXDXDXDX",
"DXDXDXjXI.W 1XDX'.k d h h g k d J N g d C E.E.K g y V ^.cXDXDXDX",
"DXvXM.5 * - 7 2XDXqXd d k k s _.tXM z J ~.M v V K v a y b /.NXDX",
"DXI./ ' ( R = * <XDXqXf D 1.m 2.b b n 1.D N W.E.A z h h a r H AX",
"9.,.] ].7XsX9XN.7 |.DXeX%X@XK K !.1.eXbX0XgXzX_.L h k h h a P 6.",
"@.#.U - 4 ~ {.CXnXV.1XVX+X$XSX~.u ).fX`.Q.1.D F <.D u h j Z /.b ",
"+ X.&. .0 4 = R [.SXnX3XrXSX@XA 3.5.(.tX%X^.E.m c c h j h *Xb b ",
"& X +.&. .0 q 4 ; B.bXDXjXjX*X).&X6.'.dXwXU.1.1.D v i b dXP r L ",
"w   X +.&. .0 9 .XQ ; 1XDXMXMXwXS C 4.(.(.-.x 3.3.l G gXJ r t 2.",
")     X O.&.{ ! C.J.^ I +XDXhXhXtX&X/.).dXBX$XU.7X$XVX^.Z P H '.",
"R.      . X.=.>.8 n.[ ; Y rXDXhXhXvXhXdX=X=XbXCXCXVXnXDXDXDXSXZX",
"8X.       ) #X$.>.^ 6 E Y E nXDXpXpXsXhXBXnXnXCXrX[.2XiXuX9X9XZX",
"CX&       % : } 7.$XT ` n.* oXDXNXnXCXNXzXSXOX( V.5 5 6 7 - ` DX",
"DXe         . _ :.#X;.Y Q 0 aXDXDXDX.XbXb.4 }./ yX~ 4 8 0 - }.DX",
"DXXX          $ + ..9.} - b.DXZXB.oX XB.bXW ~ ^ / N.4 q 6 9 bXDX",
"DXAX$           L.%.$.8.~ 2XDXbX.XY 1XK.}.b.^ E 5 R 8 0 - b.DXDX",
"DXDXL.        o @X=.8.c.9 aXDXb.aX] T }.b.W b.B.5 ; 6 0 ; 3XDXDX",
"DXDXxXO     X o.*.P.` 7 ] CXDX/ J.J.= ' V.}.B.DX2X~ 7 4 ( DXDXDX",
"DXSXDX)   o +.&.{ ; ^ ^ B.DXDXC..XpXOXyXuXCX9XaXmXrXuXuXaXDXDXDX",
"DXDXDXxX+ X.&.| ( 1XJ.` 3XDXAXnXMXmXjXBXNXbXCXnXuXnXDXCXDXDXDXDX",
"DXDXDXDX#X#.| m.rX.XuX3X2XDXjXvXNXF.5XF.A.k.d.:XD.j.j.zXDXDXDXDX",
"DXDXDXDXDX;.9 K.C.mXuXJ.{.NXMX:XlXl.nXY.t.d.3 z.Z.1 G.DXDXDXDXDX",
"DXDXDXDXDXuX9 T OXK.[ [ ].AX=Xv.kXT.;Xx.S.h.w.F.j.g.DXDXDXDXDXDX",
"DXDXDXDXDXDXoX- ] ` Q 9XAXAXD.v.8Xk.Y.3 u.r.y.l.s.zXDXDXDXDXDXDX",
"DXDXDXDXDXSXDXI.* ^ .XAX>XlXH.3 Y.x.g.h.u.r.y.t.5XDXDXDXDXDXDXDX",
"DXDXDXDXDXDXDXDXN.|.DX6X0.:X;X0.p.z.A.f.i.r.q.,XDXDXDXDXDXDXDXDX",
"DXDXDXDXDXDXDXDXDXCX>Xe.0.z.,X1 , > , > 2 r.,XDXDXDXDXDXDXDXDXDX",
"DXDXDXDXDXDXDXDXSXDXG.0.r.p.:X, @ # #   < 6XDXDXDXDXDXDXDXDXDXDX",
"DXDXDXDXDXDXDXDXDXDXDX;Xt.0.F.a.2 t.0.a.lXDXAXDXDXDXDXDXDXDXDXDX",
"DXDXDXDXDXDXDXDXDXDXDXDXlXf.p.k.w.e.F.SXDXDXDXDXDXDXDXDXDXDXDXDX",
"DXDXDXDXDXDXDXDXDXDXDXDXDXZX-XS.H.4XDXDXDXDXDXDXDXDXDXDXDXDXDXDX"
};
