/* XPM */
static char *d19c82eba5394f6ace90369c365b4152[] = {
/* columns rows colors chars-per-pixel */
"64 64 255 2 ",
"   c #000000",
".  c #070904",
"X  c #0E150D",
"o  c #271C03",
"O  c #1A241B",
"+  c #382804",
"@  c #000928",
"#  c #000C34",
"$  c #273727",
"%  c #4F3905",
"&  c #364536",
"*  c #305232",
"=  c #6B4E07",
"-  c #001147",
";  c #001558",
":  c #001C79",
">  c #09246C",
",  c #007749",
"<  c #067D4A",
"1  c #017A4C",
"2  c #167E48",
"3  c #097F50",
"4  c #18487B",
"5  c #53624A",
"6  c #CA3E2D",
"7  c #DD352E",
"8  c #D93A2F",
"9  c #DF3730",
"0  c #D53E31",
"q  c #DE3831",
"w  c #E03731",
"e  c #956C0B",
"r  c #846911",
"t  c #B55736",
"y  c #B36A38",
"u  c #D7462D",
"i  c #C94B37",
"p  c #D44235",
"a  c #D64839",
"s  c #CE5237",
"d  c #E1473E",
"f  c #CC783B",
"g  c #B66C4B",
"h  c #B67858",
"j  c #BE7B61",
"k  c #D14F41",
"l  c #CC5745",
"z  c #D35847",
"x  c #E3514B",
"c  c #CA654A",
"v  c #D9654A",
"b  c #CC6958",
"n  c #D46953",
"m  c #CD7452",
"M  c #D77558",
"N  c #E46F53",
"B  c #CA7A65",
"V  c #DA7A61",
"C  c #E07A61",
"Z  c #3F873F",
"A  c #508C3C",
"S  c #749535",
"D  c #098447",
"F  c #0C824C",
"G  c #18864A",
"H  c #0C8251",
"J  c #138553",
"K  c #198756",
"L  c #1B8A59",
"P  c #298344",
"I  c #248E5B",
"U  c #25925A",
"Y  c #268F61",
"T  c #2C9363",
"R  c #37976A",
"E  c #3D9A72",
"W  c #3DA160",
"Q  c #5C9A50",
"!  c #419A69",
"~  c #439E74",
"^  c #748669",
"/  c #788B78",
"(  c #46A36B",
")  c #4AA476",
"_  c #58AA73",
"`  c #54A97A",
"'  c #62AD76",
"]  c #6DB47C",
"[  c #B8840D",
"{  c #8F9730",
"}  c #A29633",
"|  c #AAA227",
" . c #B8A929",
".. c #CE950F",
"X. c #D6AB1A",
"o. c #FEB50F",
"O. c #E9AA12",
"+. c #EAAD12",
"@. c #F5B415",
"#. c #FEB612",
"$. c #FFB812",
"%. c #CEB32F",
"&. c #EBBC2C",
"*. c #EBC333",
"=. c #AF8959",
"-. c #BA8565",
";. c #BD9477",
":. c #9FA663",
">. c #D3865E",
",. c #CABF4F",
"<. c #C9816D",
"1. c #D78769",
"2. c #CB8774",
"3. c #CA9571",
"4. c #D89279",
"5. c #E7926C",
"6. c #D3A77A",
"7. c #CFC458",
"8. c #C8C972",
"9. c #E3D06A",
"0. c #001E85",
"q. c #001E93",
"w. c #00248C",
"e. c #083686",
"r. c #143B86",
"t. c #002294",
"y. c #072B92",
"u. c #0C3292",
"i. c #153A93",
"p. c #1A448B",
"a. c #1B4294",
"s. c #275287",
"d. c #254895",
"f. c #2B5397",
"g. c #355A99",
"h. c #396687",
"j. c #396299",
"k. c #344CA7",
"l. c #3C53A9",
"z. c #425F8B",
"x. c #45669B",
"c. c #52779A",
"v. c #546FAF",
"b. c #5779A6",
"n. c #6577B7",
"m. c #6F9099",
"M. c #59AA84",
"N. c #5EB082",
"B. c #66B08B",
"V. c #67B489",
"C. c #76BC8A",
"Z. c #74BA94",
"A. c #7ABB98",
"S. c #5F87A3",
"D. c #6887AB",
"F. c #6E8FAD",
"G. c #7499AB",
"H. c #7999B5",
"J. c #7EC197",
"K. c #7884C3",
"L. c #899D83",
"P. c #A19F99",
"I. c #91B494",
"U. c #B2B494",
"Y. c #8CAFAE",
"T. c #8AA3B6",
"R. c #A8B8A4",
"E. c #A4BBB6",
"W. c #CD9886",
"Q. c #D19B8B",
"!. c #C4A58C",
"~. c #D5A488",
"^. c #CAA994",
"/. c #D6A995",
"(. c #CAB391",
"). c #D9B696",
"_. c #ECB590",
"`. c #E7B799",
"'. c #CCB9A7",
"]. c #D6BAA8",
"[. c #F4B9B6",
"{. c #8EC98A",
"}. c #84C49B",
"|. c #B5CB90",
" X c #8AC5A4",
".X c #94CBA9",
"XX c #9DD0B0",
"oX c #A5D2AA",
"OX c #B0CCB5",
"+X c #A3D2B4",
"@X c #AAD6B9",
"#X c #B6DAB9",
"$X c #BFE3B8",
"%X c #CED194",
"&X c #C7C3A5",
"*X c #D0D2AD",
"=X c #D9C9B8",
"-X c #D6D7BC",
";X c #E4C9AB",
":X c #E5CDB5",
">X c #E5D2B7",
",X c #F3D7B3",
"<X c #CCE9B8",
"1X c #D8E7B5",
"2X c #E8E3AF",
"3X c #8FAEC1",
"4X c #9AB4C4",
"5X c #A4BAC7",
"6X c #B0CCC9",
"7X c #B3DAC3",
"8X c #BADDC4",
"9X c #BDDDCB",
"0X c #B8CCD2",
"qX c #BCE1C6",
"wX c #C5DAC8",
"eX c #DBD5C6",
"rX c #D7D7CE",
"tX c #C5D8D9",
"yX c #E5DBC9",
"uX c #F4D7D3",
"iX c #C3E2CC",
"pX c #C9E6C9",
"aX c #D7EAC9",
"sX c #DBF2CB",
"dX c #CBE4D4",
"fX c #CBE8D3",
"gX c #D7EAD9",
"hX c #D9F1D3",
"jX c #DCF1DC",
"kX c #E8E7C9",
"lX c #E3F4CC",
"zX c #E7E7D9",
"xX c #E8F6D7",
"cX c #E3F4DC",
"vX c #F2F3D7",
"bX c #D7DFE8",
"nX c #DBE9E3",
"mX c #DCEDE2",
"MX c #DEF2E2",
"NX c #E6EDE5",
"BX c #EDEEED",
"VX c #E4F3E4",
"CX c #ECF7E5",
"ZX c #E6F3E9",
"AX c #EBF5EC",
"SX c #EEF8EC",
"DX c #F7F7E6",
"FX c #F2F4EC",
"GX c #F4FAEC",
"HX c #EDF5F1",
"JX c #F2F4F6",
"KX c #F4FAF4",
"LX c #F9FCF5",
"PX c #F7FCF8",
"IX c #FFFFFF",
/* pixels */
"IXIXIXIXIXIXIXIXIXIXIXIXIXIXIXIXIXIXIXIXIXIXIXIXIXIXIXIXIXIXIXIXIXIXIXIXIXIXIXIXIXIXIXIXIXIXIXIXIXIXIXIXIXIXIXIXIXIXIXIXIXIXIXIX",
"IXIXIXIXIXIXIXIXIXIXIXIXIXIXIXIXIXIXIXIXIXIXIXIXIXIXIXIXIXIXIXIXIXIXIXIXIXIXIXIXIXIXIXIXIXIXIXIXIXIXIXIXIXIXIXIXIXIXIXIXIXIXIXIX",
"IXIXIXIXIXIXIXIXIXIXIXIXIXIXIXIXIXIXIXIXIXIXIXIXIXIXKXFXHXNXNXzXzXNXFXFXJXIXIXIXIXIXIXIXIXIXIXIXIXIXIXIXIXIXIXIXIXIXIXIXIXIXIXIX",
"IXIXIXIXIXIXIXIXIXIXIXIXIXIXIXIXIXIXIXIXBXzX=X].Q.2.B b z z z k z z z n b B 4.^.].=XzXBXPXIXIXIXIXIXIXIXIXIXIXIXIXIXIXIXIXIXIXIX",
"IXIXIXIXIXIXIXIXIXIXIXIXIXIXIXKXNX=X/.B b k 0 8 7 7 9 9 7 7 9 9 w 9 9 9 q 9 7 7 9 p k b B /.=XNXPXIXIXIXIXIXIXIXIXIXIXIXIXIXIXIX",
"IXIXIXIXIXIXIXIXIXIXIXIXLXAXMXeXb 0 w 7 w q q 9 9 9 q q 9 9 q q 9 9 9 9 q q q q 9 9 9 9 9 9 0 k B /.yXJXIXIXIXIXIXIXIXIXIXIXIXIX",
"IXIXIXIXIXIXIXIXIXLXgXoXgXSXLXPX[.d 7 9 9 9 9 9 9 9 9 9 q q q 9 9 9 7 w q q q q 9 9 9 9 q 9 7 7 9 7 a b ^.zXKXIXIXIXIXIXIXIXIXIX",
"IXIXIXIXIXIXIXGX#X' K 3 B.HXIXIXIX[.x 9 9 9 9 9 9 9 q q q 9 9 9 p z c i 9 9 q 9 7 0 b 2.Q.^.W.B k 9 9 9 7 a 1.;XDXIXIXIXIXIXIXIX",
"IXIXIXIXLXDXOX( 3 1 1 1 1 B.BXIXIXIX[.x 7 7 9 9 q q q q 9 9 p <.>X-X;.t k t 8 p B =XrX'.Q.W.W.!.^.B q 9 q w 7 u n `.DXLXIXIXIXIX",
"IXIXIXGX#X! 2 , 1 1 1 1 1 1 M.nXIXIXIXuXx 7 9 w q q q 8 8 8 =.jXIX-X(.~.h i c ^.'.2.g t 6 7 7 7 a j g 9 q q w q w q N `.DXIXIXIX",
"IXIXsX' < , , , 1 , < 1 1 1 , ) nXIXIXIXuXx w w 9 7 p B h g (.yX1.v z s t h ;.b l ;.j 6 7 0 l l l l t u w q q w w q q q N ,XLXIX",
"IXIXoX' ' ' ' _ ! I F < 1 1 1 1 ~ nXIXIXIXuXN w 0 -.!.!.g ;./.n 7 7 q 8 0 a k 2.'.b p b /.=XrX=X^.;.h y u q q q w q q q 7 N DXLX",
"LXvX2X%XoX<XlXvXDXVXpXoXB.R F < , E dXIXIXIXuX2.!.NX!.!.h u i u M /.).~./.=XyXwXP.W.=XJXIXJX'.b 0 q 8 u u 7 q q w w w 7 7 C ,X5.",
"9.*.$.| P 2 I ( {.$XDXLXIXBXiXA.R 1 R tXIXIXZXNXJX^.'.nX;.;.=.(.:X~.V B '.LXPXmXBXJXJXBXNXzXgXzX'.b 8 w 7 w q q u w w 7 7 _._.u ",
"&.o.$.$.| 2 , 1 , 3 R C.pXLXIXIXZX@X) R 9XIXmXSXjXU.U.I.rXKXcX).a 8 s `.GXIXIXFX:XQ.B b k k z b W.&X;.a w w w w 7 7 7 7 5.,Xd u ",
"} O.$.$.#.| P 1 1 1 1 1 K _ @XHXIXIXJX6XZ.iXmXfX8XOX=XHXIXzX~.l u d ;XGXzXkX^.B B B Q./.Q.2.b k 9 a B -.u w w w w w 7 N ,XN w u ",
"5 % O.#.#.o. .P 1 1 1 1 1 , 3 E @XJXIXIXHXiXiXqXfXiXPXIXSX*X6.f s >.6.M c >.^.yXBXrX].!.2.2.2.;.h l 0 l i q q q q 7 v ,X_.8 w a ",
"5   % X.#.#.#...P 1 1 1 1 1 1 1 3 ) 9XPXIXIXHXfXqXpXPXMX*X3.f m >.5.6.M /.NXIXjX&X^.W.4.2.b k 0 a t t p q q q 7 7 v ,X;Xd 9 7 v ",
"^ .   % X.$.#.#.%.Z 1 1 1 1 1 1 1 1 H }.PXIXIXIXCXsXVXxXlX6.).DXkXDXCXkXDXLXIXPXPXPXnXeX-X=X=X^.b 8 6 8 w q 9 7 M uXkXz q q w N ",
":..     + ..#.#.#.X.Z 1 1 1 1 1 1 Y B. XZ.qXIXIXIXLXhXCXvXvXlX5.f 5.v x v 5.`.:X>X>XU.=.y i z B !.;.z q q 7 p 4.NXkXv 9 q q q >.",
"R..       + ..$.#.#.X.Z 1 1 D , V.qXV.L 1 L XXLXIXIXLXDXDXGXlX).8.f u k v C C >.V m f y g m 2.b l c =.c 8 k `.PXuXn w w q q 8 6.",
"-XO         o ..$.#.$.O.A 1 1 ,  X@XF U < 1 F }.LXIXIXLXvX1XDXxX;XM `.kXvXvXDXDXGXDXkX|.:.{ |.aXzX'.g y -.rXLXyXv w w w 7 q 8 ;X",
"mX$           o [ $.$.$.X.A D , V.@X( .XL F G G {.GXIXIXLXvXxXDXlXaX].4.C M C 5.`.zXKXcX<X(.=.h =XfXU.&XGXIX=Xn d d x d d d z yX",
"JX5             o [ $.$.$.@.Q ( .XR R GX.X( U D < C.KXIXIXIXlX<XaXlX>X:X;X;X:X:X:X1XxXcXPXPXNXeX*X9XIXIXHXMXzXuXuXuXuXuXuXuXyXGX",
"LX/               o e $.@.7.%X:.J H R  X}.( D 1 H D }.LXIXIXLXcXhXcXSXLXlXsXsXlXsX<XsX<XjXjXgXPXPXIXIXZXgXPXIXIXIXIXIXIXIXIXMXPX",
"IXR..               o } 8.7.&.+.S Y J D H J 1 1 L W D oXIXIXIXPXjXFXCXcXCXLXGXCXcXsX<X<XjXMXAXIXIXKXiXOXdXIXIXIXIXIXIXIXIXPXMXIX",
"IXgXO               . R.*X7.+.@.%.{..XT 1 1 H H 1 D D I gXIXIXIXCX$XaXVXhXcXxXsXCXAXVXAXPXIXIXIXgX8XwX8X@XAXBXBXHXBXBXBXHXNXZXIX",
"IXPX&               . P.tX{  . .%. .|.XXY D R V.E < 1 , V.LXIXIXIXcXpXAXpXpXjXVXPXIXIXIXIXgX XiXwX` ) ! Y R E R R E R E R N.HXIX",
"IXIX/                 O * X r @.%.,.,.#XR D F ) qXR 1 1 T HXIXIXIXIXIXIXIXIXIXIXIXIXHXIXJX` , Y XX) 3 K 1 1 1 1 1 1 1 1 , B.IXIX",
"IXIXOX.                 X * * r  .7.aXcXQ 2 < H Z.E 1 1 M.PXIXIXIXIXIXIXLXIXIXPX@XM.R B.jX7XT E .X9XK < 1 1 1 1 1 1 1 1 3 7XIXIX",
"IXIXBX&                   X L.OXL.8.*.8.%X} G D U H 1 H 7XIXIXIXIXIXIXPXXXN.MXIX@XJ , , ~ dX~ ) wXIXA., 1 1 1 1 1 1 1 1 T AXIXIX",
"IXIXIX/                     & ^ X = +.@.1X*.| P D F 1 R HXIXIXIXMX8XPXAXMX` ~ ZXIXXXF < 1 Z.Z., L  XdXL 1 1 1 1 1 1 1 1 Z.IXIXIX",
"IXIXIXwXX                     X $ & % %.1X*.o. .2 1 1 }.IXIXIXIXJ.J oX` fXZX~ N.PXPXA.K U I }.3 1 3 }.~ 1 1 1 1 1 1 1 3 dXIXIXIX",
"IXIXIXHX5                       & #X^ ,.,.@.@.%.Z Y ) nXIXIXIXPXfXT V.L ` PX9XL @XZXXX~ ) T ! ) F < I ! 1 1 1 1 1 1 1 ) JXIXIXIX",
"IXIXIXIXI.                      5 1X*.@.o.@.9.7XV.M.}.PXIXIXIX@XHX7X_ U L gXPXM.R dXT T U A.3 J G < < G 1 1 1 1 1 1 3 +XIXIXIXIX",
"IXIXIXIXNX$                     5 %X+.o.o.8.@XZ.3 1 B.LXIXIXZXR 8XPXJ.D L ` 7X@XH @X) 1 D }.M., 1 1 1 < 1 1 1 1 1 1 R ZXIXIXIXIX",
"IXIXIXIXIX/                   % %.sX,.*.%.OXL F 1 K 9XIXIXIX#X1 J.CXqXU D 1 ~ fXL Z. XF U B.MXA.T 1 1 1 1 1 1 1 1 <  XIXIXIXIXIX",
"IXIXIXIXIXgX$               = O.$.7.8.<XoXXXJ < H C.MXIXIXIX+X1 ) cXJ.V.D 1 H 7X~ ) mXE ` iXIXIXmXV.3 < 1 1 1 1 , Y MXIXIXIXIXIX",
"IXIXIXIXIXIX/             = O.$.#.$.| R Y J 1 I C.) dXIXIXIXdXH L MXV.C.U K J  XN.~ KX9XT }.ZXIXIXKX+X( K K 2 K J  XIXIXIXIXIXIX",
"IXIXIXIXIXIXgXO       . = O.$.$.#.| G 1 , H ` A.T M.KXIXIXIXZXI T jXpX$X@XoXtXiXiX9XHXIXdXOXdXMXKXKXpXwXdXtXbXtX7XNXIXIXIXIXIXIX",
"IXIXIXIXIXIXIX/     . = O.o.$.$.} 2 1 H )  XB.J L qXIXIXIXIXKXZ.9XZXCXjXaXfXSXjXjXSXZXPXPXPXMXMXmXfXwXdXIXIXIXPXmXIXIXIXIXIXIXIX",
"IXIXIXIXIXIXIXnX$ . r o.#.o.$.{ 2 K B.9XiXV.T U  XSXPXIXIXIXLXjXPXVXCXVXpXcXVXVXgXPXMXZXfXPXPXMXVXmXiXHXIXIXIXmXKXIXIXIXIXIXIXIX",
"IXIXIXIXIXIXIXIXI.r @.o.#.@.{ 2 M.dXPXdX XN.Z.iXmX}.KXIXIXSXSXVXPXZXVXMXdXCXcXmXpXHXmXdXiXfXHXgX8XnXtXJXJXJXNXMXIXIXIXIXIXIXIXIX",
"IXIXIXIXIXIXIXIXDX7.o.o.@.{ 2 A.KXnXZ.Z.@XmXPXfXN.#XIXIXLXhXcXVXSXSXtXl.D.GX5Xk.Y.n.k.k.j.j.F.ZXG.G.l.l.l.l.4XIXIXIXIXIXIXIXIXIX",
"IXIXIXIXIXIXIXIXIXkX&.@.S 1 M.9X9XM.XXPXIXIX8X) qXPXLXIXGXcXzXDXgXKX5Xw.T.IXE.q.a.m.h.p.e.e.y.0XH.h.i.t.q.j.NXIXIXIXIXIXIXIXIXIX",
"IXIXIXIXIXIXIXIXIXIX%XS 3 H J.N.Z.B.IXPXPXmX( #X$XC.PXIXGXxXxX5XT.IX4Xa.gXIXbXd.t.i.j.p.s.r.q.H.5Xr.e.q.i.tXIXIXIXIXIXIXIXIXIXIX",
"IXIXIXIXIXIXIXIXIXIXHXM.1 1 ~ ` B.XXPXXXXX}.J.#XU ' LXIXDXxX5Xd.0XIXF.c.PXrXgX6Xj.i.p.c.c.t.t.D.6Xe.y.y.3XIXIXIXIXIXIXIXIXIXIXIX",
"IXIXIXIXIXIXIXIXIXIXIXnXT 1 D R M.XXMXL N.] oXT ] <XGXIXCX1Xc.c.LXLXx.F.BXx.d.T.6XE.Y.c.e.t.t.H.4Xt.t.S.KXIXIXIXIXIXIXIXIXIXIXIX",
"IXIXIXIXIXIXIXIXIXIXIXIX8XK 1 H ` J.7XD ( ` C.A.PXGXCXIXvXR.p.5XGXFXd.F.zXi.q.w.u.p.u.t.t.t.y.5Xv.t.j.ZXIXIXIXIXIXIXIXIXIXIXIXIX",
"IXIXIXIXIXIXIXIXIXIXIXIXIXXXH 1 L ( +XL K ( #XPXIXPXCXIXDXc.a.R.E.NXd.x.zXc.y.p.e.4 t.t.t.u.c.G.y.d.tXIXIXIXIXIXIXIXIXIXIXIXIXIX",
"IXIXIXIXIXIXIXIXIXIXIXIXIXPX}.3 1 D ` N.J J.hXIXIXJXgXIXbXa.z.c.x.NXx.y.b.E.m.h.4 4 t.y.4 4 g.y.a.0XIXIXIXIXIXIXIXIXIXIXIXIXIXIX",
"IXIXIXIXIXIXIXIXIXIXIXIXIXIXKXZ.H 1 D ) .XSXqXPXPXK.F.LXNXd.s.s.u.E.E.i.q.i.a.s.z.y.t.t.y.y.q.u.5XIXIXIXIXIXIXIXIXIXIXIXIXIXIXIX",
"IXIXIXIXIXIXIXIXIXIXIXIXIXIXIXHXV.1 L E.gXdXHXBXK.q.k.HXHXf.e.r.q.a.T.OXT.D.G.S.i.t.t.t.t.t.i.4XIXIXIXIXIXIXIXIXIXIXIXIXIXIXIXIX",
"IXIXIXIXIXIXIXIXIXIXIXIXIXIXIXIXZXZ.+XIXIXJXJXK.t.q.u.tXPXx.t.t.t.t.y.k.b.D.j.y.t.t.t.t.q.u.4XIXIXIXIXIXIXIXIXIXIXIXIXIXIXIXIXIX",
"IXIXIXIXIXIXIXIXIXIXIXIXIXIXIXIXIXHXnXPXIXBXn.t.t.t.t.T.PXb.t.0.: 0.0.: 0.0.0.0.0.t.t.t.i.4XPXIXIXIXIXIXIXIXIXIXIXIXIXIXIXIXIXIX",
"IXIXIXIXIXIXIXIXIXIXIXIXIXIXIXIXIXIXPXnXbXv.t.t.t.t.t.x.KXH.w.; @ # - @ @ ; @ @ # w.t.a.5XIXIXIXIXIXIXIXIXIXIXIXIXIXIXIXIXIXIXIX",
"IXIXIXIXIXIXIXIXIXIXIXIXIXIXIXIXIXIXIXPX5Xu.q.t.t.t.t.u.0X5Xt.: # : ; @ . ; @ @ @ : d.0XIXIXIXIXIXIXIXIXIXIXIXIXIXIXIXIXIXIXIXIX",
"IXIXIXIXIXIXIXIXIXIXIXIXIXIXIXIXIXIXIXIXPX5Xd.q.t.t.t.t.D.tXr.@ @ ; - # # ; @ # @ z.tXIXIXIXIXIXIXIXIXIXIXIXIXIXIXIXIXIXIXIXIXIX",
"IXIXIXIXIXIXIXIXIXIXIXIXIXIXIXIXIXIXIXIXIXIXtXg.t.t.t.t.i.0Xj.: : : 0.0.0.: : > S.NXIXIXIXIXIXIXIXIXIXIXIXIXIXIXIXIXIXIXIXIXIXIX",
"IXIXIXIXIXIXIXIXIXIXIXIXIXIXIXIXIXIXIXIXIXIXIXnXD.y.q.t.t.S.G.y.t.t.t.t.q.q.d.4XPXIXIXIXIXIXIXIXIXIXIXIXIXIXIXIXIXIXIXIXIXIXIXIX",
"IXIXIXIXIXIXIXIXIXIXIXIXIXIXIXIXIXIXIXIXIXIXIXIXPX5Xf.t.t.u.T.a.t.t.t.q.y.b.tXIXIXIXIXIXIXIXIXIXIXIXIXIXIXIXIXIXIXIXIXIXIXIXIXIX",
"IXIXIXIXIXIXIXIXIXIXIXIXIXIXIXIXIXIXIXIXIXIXIXIXIXIXnXF.i.q.g.F.t.t.t.f.4XKXIXIXIXIXIXIXIXIXIXIXIXIXIXIXIXIXIXIXIXIXIXIXIXIXIXIX",
"IXIXIXIXIXIXIXIXIXIXIXIXIXIXIXIXIXIXIXIXIXIXIXIXIXIXIXIXtXb.i.G.G.f.H.mXIXIXIXIXIXIXIXIXIXIXIXIXIXIXIXIXIXIXIXIXIXIXIXIXIXIXIXIX",
"IXIXIXIXIXIXIXIXIXIXIXIXIXIXIXIXIXIXIXIXIXIXIXIXIXIXIXIXIXKXtXtXPXNXIXIXIXIXIXIXIXIXIXIXIXIXIXIXIXIXIXIXIXIXIXIXIXIXIXIXIXIXIXIX"
};
