/* XPM */
static char *_0c78f8adbc04dc5c6f8ad7b3fbf2c63[] = {
/* columns rows colors chars-per-pixel */
"16 16 196 2 ",
"   c black",
".  c #040502",
"X  c #0B0E10",
"o  c #20241E",
"O  c #1D2B24",
"+  c #212B2C",
"@  c #383C37",
"#  c #3F433F",
"$  c #006836",
"%  c #056F3E",
"&  c #000056",
"*  c #0A1453",
"=  c #0E226E",
"-  c #273E73",
";  c #006943",
":  c #007040",
">  c #0F7E4E",
",  c #7A7F79",
"<  c #DC221C",
"1  c #DC2720",
"2  c #DB2C26",
"3  c #DC2D25",
"4  c #CC3D2D",
"5  c #DA3F35",
"6  c #B97F03",
"7  c #CE4A3A",
"8  c #DA4236",
"9  c #D94338",
"0  c #C65D47",
"q  c #CD5947",
"w  c #CD5D4D",
"e  c #DE534A",
"r  c #DB554B",
"t  c #DE5B50",
"y  c #D95C50",
"u  c #CB6550",
"i  c #CC6556",
"p  c #DA6A5A",
"a  c #DC685F",
"s  c #E26D54",
"d  c #E36F5F",
"f  c #D27662",
"g  c #D87262",
"h  c #D87A66",
"j  c #E06D65",
"k  c #17864A",
"l  c #1F8753",
"z  c #1E8354",
"x  c #1C8A51",
"c  c #258B5E",
"v  c #118364",
"b  c #158863",
"n  c #188C6B",
"m  c #298C61",
"M  c #3D986B",
"N  c #3F996B",
"B  c #429967",
"V  c #4E9F7A",
"C  c #509F79",
"Z  c #50A078",
"A  c #58A67D",
"S  c #58AA7D",
"D  c #BD8505",
"F  c #BD982C",
"G  c #95A527",
"H  c #A0A72F",
"J  c #AFAF34",
"K  c #BEA83D",
"L  c #C58F08",
"P  c #C08A0F",
"I  c #98AB46",
"U  c #9CAE46",
"Y  c #9DB85F",
"T  c #AEB347",
"R  c #A7B74E",
"E  c #B5A556",
"W  c #BB8361",
"Q  c #CCB152",
"!  c #DA8C6D",
"~  c #DB916F",
"^  c #CF8070",
"/  c #C38F7A",
"(  c #C89177",
")  c #001181",
"_  c #12348F",
"`  c #0C2694",
"'  c #22468B",
"]  c #324B97",
"[  c #325199",
"{  c #445B94",
"}  c #475BAC",
"|  c #4A67A4",
" . c #5067A4",
".. c #516DA1",
"X. c #4A65B1",
"o. c #4AA481",
"O. c #5AA984",
"+. c #5CAB85",
"@. c #66AE89",
"#. c #62AB8D",
"$. c #6CB089",
"%. c #6BB18F",
"&. c #6FB292",
"*. c #68BA9E",
"=. c #7EBD9C",
"-. c #6480A6",
";. c #778EB6",
":. c #7F90B7",
">. c #7AB9A1",
",. c #7C8DC0",
"<. c #9AA19C",
"1. c #E19087",
"2. c #EC9F86",
"3. c #E29B93",
"4. c #D8A88B",
"5. c #D5A799",
"6. c #D9A79A",
"7. c #D1AA98",
"8. c #D1B696",
"9. c #E9AF9D",
"0. c #D6B6A8",
"q. c #FFABAB",
"w. c #F0BBAF",
"e. c #EDBAB5",
"r. c #FFB5B7",
"t. c #82C099",
"y. c #8BC79F",
"u. c #87C2AB",
"i. c #97CBAB",
"p. c #9CCAAF",
"a. c #87C1B2",
"s. c #A1CCB2",
"d. c #A5CCB7",
"f. c #A9CFB7",
"g. c #AAD9B6",
"h. c #B6DDBF",
"j. c #CFD78C",
"k. c #D7D5B7",
"l. c #E4C9AA",
"z. c #E2D9B2",
"x. c #818BC7",
"c. c #9AAEC5",
"v. c #92A4CD",
"b. c #9DB1CA",
"n. c #A7B0C2",
"m. c #A2B4CB",
"M. c #B4BCD9",
"N. c #ACC5CB",
"B. c #A4DCCA",
"V. c #B4D9C3",
"C. c #BBDDCA",
"Z. c #B7C3DA",
"A. c #BCE5D5",
"S. c #C3C7C3",
"D. c #CAD6D1",
"F. c #C3DED2",
"G. c #C7D3DB",
"H. c #EFCEC9",
"J. c #F0C9C2",
"K. c #E4DCCE",
"L. c #CFEBCB",
"P. c #DEE0C9",
"I. c #C6E2D1",
"U. c #C3E3D4",
"Y. c #CBE7D2",
"T. c #CDE2D6",
"R. c #CFE7D8",
"E. c #CFEFD9",
"W. c #D2E0DE",
"Q. c #DAEFDD",
"!. c #E0E8C4",
"~. c #E1E7D8",
"^. c #C4CDE1",
"/. c #CECEEA",
"(. c #D0D9EC",
"). c #D9EAE0",
"_. c #DBF0E0",
"`. c #DDF6EB",
"'. c #E5E7EC",
"]. c #F8EFE8",
"[. c #E4F1EB",
"{. c #E8F4EA",
"}. c #E7F9E9",
"|. c #EAF1FA",
" X c #FBF9F6",
".X c #FBFFF4",
"XX c #FDFFF6",
"oX c #FEFFF6",
"OX c #F5F9F8",
"+X c #F4FCFB",
"@X c #FEFBF9",
"#X c #FAFFF8",
"$X c #FBFBFD",
"%X c #FBFCFC",
"&X c #FEFEFD",
"*X c #FCFDFE",
/* pixels */
"&X&X&X X1.a r 5 9 e j 3.H.%X&X&X",
"+Xs.z u.q.< 1 y f 4 i w 7 t w.@X",
"j.B $.C B.e./ ( h 7.5.6.u 3 < 2.",
"L H v %.d.`.E.4.! K.0.^ q 2 d s ",
"o 6 G ; A f.oXz.~ 9.8.W 0 g p 8 ",
"#   P R o.k p..Xk.l.!.P.~.].r.J.",
",   + K Y n l ).#X}._.U.=.#.*.A.",
"S..   O E I m [.I.C.&.N Z : % T.",
"&X@   X Q T >.{.S O.+.N > $ V &X",
"&X<.  D U b V.F.y.t.h.Q.h.@.I.&X",
"&X|.F J a.i.R.oXW.G.b.N.m./.&X&X",
"&X&Xk.c B.t.L.D.c.:.' [ ] ^.&X&X",
"&X%X&Xu.x g.'.-.;..._ _ Z.&X&X&X",
"&X&XoXOXY.x.}  .= - ) v.&X&X&X&X",
"&X&X&X%X&X,.` { & * n.&X&X&X&X&X",
"&X&X&X&X&X&XM.| X.(.&X$X&X&X&X&X"
};
